<svg width="25" height="12" viewBox="0 0 25 12" fill="none" xmlns="http://www.w3.org/2000/svg">
<path d="M21.5 0H18.5C17.9696 0 17.4609 0.210714 17.0858 0.585787C16.7107 0.96086 16.5 1.46957 16.5 2C16.5 2.53043 16.2893 3.03914 15.9142 3.41421C15.5391 3.78929 15.0304 4 14.5 4H10.5C9.96957 4 9.46086 3.78929 9.08579 3.41421C8.71071 3.03914 8.5 2.53043 8.5 2C8.5 1.46957 8.28929 0.96086 7.91421 0.585787C7.53914 0.210714 7.03043 0 6.5 0H3.5C2.70435 0 1.94129 0.31607 1.37868 0.878679C0.81607 1.44129 0.5 2.20435 0.5 3L0.5 7C0.501588 8.32559 1.02888 9.59644 1.96622 10.5338C2.90356 11.4711 4.17441 11.9984 5.5 12H19.5C20.8256 11.9984 22.0964 11.4711 23.0338 10.5338C23.9711 9.59644 24.4984 8.32559 24.5 7V3C24.5 2.20435 24.1839 1.44129 23.6213 0.878679C23.0587 0.31607 22.2956 0 21.5 0ZM22.5 7C22.5 7.79565 22.1839 8.55871 21.6213 9.12132C21.0587 9.68393 20.2956 10 19.5 10H5.5C4.70435 10 3.94129 9.68393 3.37868 9.12132C2.81607 8.55871 2.5 7.79565 2.5 7V3C2.5 2.73478 2.60536 2.48043 2.79289 2.29289C2.98043 2.10536 3.23478 2 3.5 2H6.5C6.5 3.06087 6.92143 4.07828 7.67157 4.82843C8.42172 5.57857 9.43913 6 10.5 6H14.5C15.5609 6 16.5783 5.57857 17.3284 4.82843C18.0786 4.07828 18.5 3.06087 18.5 2H21.5C21.7652 2 22.0196 2.10536 22.2071 2.29289C22.3946 2.48043 22.5 2.73478 22.5 3V7Z" fill="white"/>
</svg>
