<svg width="21" height="24" viewBox="0 0 21 24" fill="none" xmlns="http://www.w3.org/2000/svg">
<path d="M17.081 2.14L10.816 0.0509967C10.6109 -0.0173244 10.3891 -0.0173244 10.184 0.0509967L3.919 2.14C2.92291 2.47088 2.05642 3.10725 1.44265 3.95871C0.828874 4.81016 0.499038 5.83338 0.500002 6.883V12C0.500002 19.563 9.7 23.74 10.094 23.914C10.2218 23.9708 10.3601 24.0001 10.5 24.0001C10.6399 24.0001 10.7782 23.9708 10.906 23.914C11.3 23.74 20.5 19.563 20.5 12V6.883C20.501 5.83338 20.1711 4.81016 19.5574 3.95871C18.9436 3.10725 18.0771 2.47088 17.081 2.14ZM18.5 12C18.5 17.455 12.181 21.033 10.5 21.889C8.817 21.036 2.5 17.469 2.5 12V6.883C2.50006 6.25327 2.69828 5.63954 3.06657 5.12874C3.43486 4.61794 3.95455 4.23599 4.552 4.037L10.5 2.054L16.448 4.037C17.0455 4.23599 17.5651 4.61794 17.9334 5.12874C18.3017 5.63954 18.4999 6.25327 18.5 6.883V12Z" fill="white"/>
</svg>
